Nederland
Komedie / Drama
100 minuten

geregisseerd door Antoinette Beumer
met Carice van Houten, Waldemar Torenstra en René van 't Hof

Maak kennis met Lea Meijer, een vrouw die jong, mooi, rijk en gelukkig getrouwd is met Harry. Op een kwade dag besluit Harry dat hij een kind wil. Lea stemt toe, nadat ze zijn overeengekomen dat hij haar elke avond zal nemen. En met een fulltime au-pair hoeft haar leven toch niet echt te veranderen? De bevalling wordt een langdurige hel compleet met tangverlossing en totaalruptuur. Maar Junior blijkt gezond en Harry is dolgelukkig. Maar Lea niet.
 
http://moviemeter.nl/film/61994

Audio: Nederlands. Subtitles (srt) : English.



English Title: The Happy Housewife 

Lea is an immaculate 30-something wife whose husband's job in real estate allows her an enviably glossy lifestyle...
 
http://www.imdb.com/title/tt0920459/

Audio: Dutch.  Ondertiteling (srt) : Engels.

General
Complete name                    : De Gelukkige Huisvrouw-AC3-XviD-DVDRip[Ned]2010 2Lions-Team\De Gelukkige Huisvrouw-AC3-XviD-DVDRip[Ned]2010 2Lions-Team.avi
Format                           : AVI
Format/Info                      : Audio Video Interleave
File size                        : 1.36 GiB
Duration                         : 1h 37mn
Overall bit rate                 : 1 991 Kbps
Writing application              : VirtualDubMod 1.5.4.1 (build 2178/release)
Writing library                  : VirtualDubMod build 2178/release

Video
ID                               : 0
Format                           : MPEG-4 Visual
Format profile                   : Simple@L3
Format settings, BVOP            : No
Format settings, QPel            : No
Format settings, GMC             : No warppoints
Format settings, Matrix          : Default (H.263)
Codec ID                         : XVID
Codec ID/Hint                    : XviD
Duration                         : 1h 37mn
Bit rate                         : 1 533 Kbps
Width                            : 720 pixels
Height                           : 400 pixels
Display aspect ratio             : 16:9
Frame rate                       : 25.000 fps
Color space                      : YUV
Chroma subsampling               : 4:2:0
Bit depth                        : 8 bits
Scan type                        : Progressive
Bits/(Pixel*Frame)               : 0.213
Stream size                      : 1.05 GiB (77%)
Writing library                  : XviD 1.1.2 (UTC 2006-11-01)

Audio
ID                               : 1
Format                           : AC-3
Format/Info                      : Audio Coding 3
Mode extension                   : CM (complete main)
Codec ID                         : 2000
Duration                         : 1h 37mn
Bit rate mode                    : Constant
Bit rate                         : 448 Kbps
Channel(s)                       : 6 channels
Channel positions                : Front: L C R, Side: L R, LFE
Sampling rate                    : 48.0 KHz
Bit depth                        : 16 bits
Stream size                      : 314 MiB (23%)
Alignment                        : Split accross interleaves
Interleave, duration             : 40 ms (1.00 video frame)
Interleave, preload duration     : 500 ms

Met dank aan ed1970 voor de bron.

Brought to you by 
2Lions Team

meer zien??
                   
Kom dan eens kijken op ons NIEUWE forum 
            
http://www.2lions-site.nl/

2Lions the site to be for all your Dutch MOVIES and more

******************************************

DON T HIT AND RUN Niet gelijk afhaken als de FILM binnen is blijf seeden. 

Don`t quit after you finished the download, but keep seeding

There are fake torrents from uploaders who use our team name.
Those are not ours, or members from our team.
We 2Lions-Team are not responsible for the fake posts on our name

Wij 2Lions-Team zijn niet verantwoordelijk voor die zieke FAKE posten die op onze naam worden gedaan

Please check our site !!!

to the fakers , get a life !!!